<svg xmlns="http://www.w3.org/2000/svg" width="182.817" height="22.369" viewBox="0 0 182.817 22.369">
  <g id="g4346" transform="translate(-67.682 -638.554)">
    <path id="path4309" d="M532.043,640.378v3.841H520.777a2.86,2.86,0,0,0-2.181.733,2.636,2.636,0,0,0-.684,1.872,3.218,3.218,0,0,0,.147.96,2.047,2.047,0,0,0,.521.847,2.537,2.537,0,0,0,.993.586,5.021,5.021,0,0,0,1.6.212h5.144a10.074,10.074,0,0,1,3.68.57,6,6,0,0,1,2.263,1.481,4.917,4.917,0,0,1,1.139,2.084,9.163,9.163,0,0,1,.309,2.344,8.1,8.1,0,0,1-.391,2.572,5.222,5.222,0,0,1-1.237,2.035,5.8,5.8,0,0,1-2.165,1.351,9.275,9.275,0,0,1-3.208.488H514.461v-3.843h12.373a3.051,3.051,0,0,0,2.3-.765,2.73,2.73,0,0,0,.733-1.969,3.317,3.317,0,0,0-.163-1.025,2.093,2.093,0,0,0-.554-.879,2.822,2.822,0,0,0-1.058-.6,5.256,5.256,0,0,0-1.677-.228H521.3a9.961,9.961,0,0,1-3.615-.554,5.575,5.575,0,0,1-2.2-1.465,5.12,5.12,0,0,1-1.107-2.051,8.66,8.66,0,0,1-.31-2.278,8.146,8.146,0,0,1,.375-2.524,5.036,5.036,0,0,1,1.2-2,5.608,5.608,0,0,1,2.132-1.319,9.2,9.2,0,0,1,3.126-.472Z" transform="translate(-350.592 -1.433)" fill="#FFFFFF"/>
    <path id="path4311" d="M634.588,640.378q4.818,0,7.374,2.735t2.556,8.3q0,5.536-2.556,8.238t-7.374,2.7h-3q-4.819,0-7.375-2.7t-2.556-8.238q0-5.567,2.556-8.3t7.375-2.735Zm-3,3.841q-3.191,0-4.64,1.693t-1.449,5.5q0,3.777,1.433,5.437t4.656,1.66h3a5.778,5.778,0,0,0,4.607-1.677q1.449-1.677,1.449-5.454t-1.433-5.47q-1.433-1.693-4.623-1.693Z" transform="translate(-435.094 -1.433)" fill="#FFFFFF"/>
    <path id="path4313" d="M765.634,640.378v3.841h-8.856a6.978,6.978,0,0,0-2.182.293,3.631,3.631,0,0,0-1.4.8,2.784,2.784,0,0,0-.733,1.172,4.77,4.77,0,0,0-.212,1.449v2.084H765.5v3.647H752.251v8.693h-3.842V647.965a10.016,10.016,0,0,1,.44-3.045,6.005,6.005,0,0,1,1.416-2.393,6.633,6.633,0,0,1,2.523-1.579,10.828,10.828,0,0,1,3.729-.569Z" transform="translate(-534.641 -1.433)" fill="#FFFFFF"/>
    <path id="path4315" d="M858.438,640.378v3.841h-6.414v18.136H848.15V644.22h-6.415v-3.841Z" transform="translate(-607.939 -1.433)" fill="#FFFFFF"/>
    <path id="path4318" d="M71.914,660.923H67.682L75.4,641.387a4.144,4.144,0,0,1,1.741-2.2,5.811,5.811,0,0,1,2.882-.635,5.733,5.733,0,0,1,2.848.635,4.007,4.007,0,0,1,1.71,2.2L92,660.923H87.739l-6.675-17.68a1.071,1.071,0,0,0-1.074-.749,1.128,1.128,0,0,0-1.107.749Z" transform="translate(0 0)" fill="#FFFFFF"/>
    <path id="path4320" d="M207.562,640.378a11.112,11.112,0,0,1,3.337.439,6.193,6.193,0,0,1,2.279,1.237,4.827,4.827,0,0,1,1.319,1.9,6.787,6.787,0,0,1,.423,2.442,5.4,5.4,0,0,1-.8,3.093,4.966,4.966,0,0,1-2.361,1.791,5.336,5.336,0,0,1,2.41,1.872,5.4,5.4,0,0,1,.847,3.142,6.788,6.788,0,0,1-.423,2.443,4.825,4.825,0,0,1-1.319,1.9A6.38,6.38,0,0,1,211,661.9a10.733,10.733,0,0,1-3.338.456h-9.768a1.6,1.6,0,0,1-1.823-1.791v-18.4a1.6,1.6,0,0,1,1.823-1.791Zm-7.717,17.81q0,.358.423.358h7.489a3.717,3.717,0,0,0,2.572-.749,2.73,2.73,0,0,0,.814-2.116q0-2.833-3.386-2.833h-7.912Zm0-8.532h7.814q3.386,0,3.386-2.637a2.785,2.785,0,0,0-.8-2.083,3.548,3.548,0,0,0-2.556-.781h-7.424q-.423,0-.423.391Z" transform="translate(-100.834 -1.433)" fill="#FFFFFF"/>
    <path id="path4322" d="M319.45,640.378v3.841H308.444a3.586,3.586,0,0,0-2.539.749,2.666,2.666,0,0,0-.782,2.019q0,2.6,3.354,2.6h10.81v3.484H308.38q-3.354,0-3.354,2.67a2.6,2.6,0,0,0,.814,2.035,3.66,3.66,0,0,0,2.507.732h11.136v3.843H308.347a10.728,10.728,0,0,1-3.337-.456,6.385,6.385,0,0,1-2.279-1.254,4.676,4.676,0,0,1-1.3-1.9,6.836,6.836,0,0,1-.407-2.377,5.657,5.657,0,0,1,.814-3.142,5.074,5.074,0,0,1,2.345-1.9,4.85,4.85,0,0,1-3.093-4.949,6.691,6.691,0,0,1,.423-2.41,4.829,4.829,0,0,1,1.319-1.9,6.187,6.187,0,0,1,2.279-1.237,11.111,11.111,0,0,1,3.337-.439Z" transform="translate(-183.263 -1.433)" fill="#FFFFFF"/>
    <path id="path4324" d="M421.929,640.378a8.537,8.537,0,0,1,3.19.537,6.233,6.233,0,0,1,2.2,1.432,5.541,5.541,0,0,1,1.27,2.1,7.784,7.784,0,0,1,.407,2.508,8.376,8.376,0,0,1-.26,2.067,6.825,6.825,0,0,1-.814,1.921,5.973,5.973,0,0,1-1.433,1.579,6.211,6.211,0,0,1-2.149,1.042l5.112,8.791h-4.266l-5.014-8.5h-5.73a.489.489,0,0,0-.553.553v7.944h-3.842v-8.693a3.671,3.671,0,0,1,.814-2.67,3.622,3.622,0,0,1,2.638-.814h8.563a3.422,3.422,0,0,0,1.4-.261,2.6,2.6,0,0,0,.944-.684,2.854,2.854,0,0,0,.538-.977,3.677,3.677,0,0,0,.179-1.139,3.045,3.045,0,0,0-.733-2.035,2.891,2.891,0,0,0-2.328-.863H410.011v-3.841Z" transform="translate(-268.864 -1.433)" fill="#FFFFFF"/>
  </g>
</svg>
